<mxfile host="Electron" agent="Mozilla/5.0 (Windows NT 10.0; Win64; x64) AppleWebKit/537.36 (KHTML, like Gecko) draw.io/26.0.16 Chrome/132.0.6834.196 Electron/34.2.0 Safari/537.36" version="26.0.16">
  <diagram name="第 1 页" id="hBSfupaw6aETKqs3QS8k">
    <mxGraphModel dx="1562" dy="923" grid="1" gridSize="10" guides="1" tooltips="1" connect="1" arrows="1" fold="1" page="1" pageScale="1" pageWidth="827" pageHeight="1169" math="0" shadow="0">
      <root>
        <mxCell id="0" />
        <mxCell id="1" parent="0" />
        <mxCell id="QYlX6qRWLbLJciABfT_P-8" style="edgeStyle=orthogonalEdgeStyle;rounded=0;orthogonalLoop=1;jettySize=auto;html=1;exitX=0.5;exitY=1;exitDx=0;exitDy=0;entryX=0.5;entryY=0;entryDx=0;entryDy=0;" edge="1" parent="1" source="QYlX6qRWLbLJciABfT_P-1" target="QYlX6qRWLbLJciABfT_P-3">
          <mxGeometry relative="1" as="geometry" />
        </mxCell>
        <mxCell id="QYlX6qRWLbLJciABfT_P-1" value="ibv_get_device_list" style="rounded=1;whiteSpace=wrap;html=1;arcSize=5;" vertex="1" parent="1">
          <mxGeometry x="320" y="200" width="120" height="40" as="geometry" />
        </mxCell>
        <mxCell id="QYlX6qRWLbLJciABfT_P-13" style="edgeStyle=orthogonalEdgeStyle;rounded=0;orthogonalLoop=1;jettySize=auto;html=1;exitX=0.5;exitY=1;exitDx=0;exitDy=0;entryX=0.5;entryY=0;entryDx=0;entryDy=0;" edge="1" parent="1" source="QYlX6qRWLbLJciABfT_P-3" target="QYlX6qRWLbLJciABfT_P-9">
          <mxGeometry relative="1" as="geometry" />
        </mxCell>
        <mxCell id="QYlX6qRWLbLJciABfT_P-3" value="ibv_open_device" style="rounded=1;whiteSpace=wrap;html=1;arcSize=5;" vertex="1" parent="1">
          <mxGeometry x="320" y="270" width="120" height="40" as="geometry" />
        </mxCell>
        <mxCell id="QYlX6qRWLbLJciABfT_P-6" value="" style="shape=curlyBracket;whiteSpace=wrap;html=1;rounded=1;flipH=1;labelPosition=right;verticalLabelPosition=middle;align=left;verticalAlign=middle;" vertex="1" parent="1">
          <mxGeometry x="450" y="200" width="20" height="110" as="geometry" />
        </mxCell>
        <mxCell id="QYlX6qRWLbLJciABfT_P-7" value="步骤1：设备发现与初始化" style="text;html=1;align=center;verticalAlign=middle;resizable=0;points=[];autosize=1;strokeColor=none;fillColor=none;" vertex="1" parent="1">
          <mxGeometry x="464" y="240" width="160" height="30" as="geometry" />
        </mxCell>
        <mxCell id="QYlX6qRWLbLJciABfT_P-14" style="edgeStyle=orthogonalEdgeStyle;rounded=0;orthogonalLoop=1;jettySize=auto;html=1;exitX=0.5;exitY=1;exitDx=0;exitDy=0;entryX=0.5;entryY=0;entryDx=0;entryDy=0;" edge="1" parent="1" source="QYlX6qRWLbLJciABfT_P-9" target="QYlX6qRWLbLJciABfT_P-10">
          <mxGeometry relative="1" as="geometry" />
        </mxCell>
        <mxCell id="QYlX6qRWLbLJciABfT_P-9" value="ibv_alloc_pd" style="rounded=1;whiteSpace=wrap;html=1;arcSize=5;" vertex="1" parent="1">
          <mxGeometry x="320" y="340" width="120" height="40" as="geometry" />
        </mxCell>
        <mxCell id="QYlX6qRWLbLJciABfT_P-10" value="ibv_reg_mr" style="rounded=1;whiteSpace=wrap;html=1;arcSize=5;" vertex="1" parent="1">
          <mxGeometry x="320" y="410" width="120" height="40" as="geometry" />
        </mxCell>
        <mxCell id="QYlX6qRWLbLJciABfT_P-11" value="" style="shape=curlyBracket;whiteSpace=wrap;html=1;rounded=1;flipH=1;labelPosition=right;verticalLabelPosition=middle;align=left;verticalAlign=middle;" vertex="1" parent="1">
          <mxGeometry x="450" y="340" width="20" height="110" as="geometry" />
        </mxCell>
        <mxCell id="QYlX6qRWLbLJciABfT_P-12" value="步骤2：资源域构建与内存注册" style="text;html=1;align=center;verticalAlign=middle;resizable=0;points=[];autosize=1;strokeColor=none;fillColor=none;" vertex="1" parent="1">
          <mxGeometry x="461" y="380" width="190" height="30" as="geometry" />
        </mxCell>
      </root>
    </mxGraphModel>
  </diagram>
</mxfile>
